<?xml version="1.0" standalone="no"?>
<!DOCTYPE svg PUBLIC "-//W3C//DTD SVG 20010904//EN"
 "http://www.w3.org/TR/2001/REC-SVG-20010904/DTD/svg10.dtd">
<svg version="1.0" xmlns="http://www.w3.org/2000/svg"
 width="222.000000pt" height="591.000000pt" viewBox="0 0 222.000000 591.000000"
 preserveAspectRatio="xMidYMid meet">
<metadata>
Created by potrace 1.16, written by Peter Selinger 2001-2019
</metadata>
<g transform="translate(0.000000,591.000000) scale(0.100000,-0.100000)"
fill="#000000" stroke="none">
<path d="M234 5885 c-73 -73 -115 -286 -146 -735 -17 -246 -16 -1811 1 -1950
6 -52 28 -162 48 -245 l36 -149 -6 -331 c-9 -460 -28 -690 -114 -1325 -45
-327 -47 -357 -48 -580 0 -215 2 -242 23 -319 29 -108 52 -151 102 -193 120
-104 329 -66 400 72 26 51 50 179 57 300 7 124 -5 275 -52 650 -71 575 -98
956 -99 1415 l-1 300 51 115 c120 267 142 319 168 404 64 206 75 358 57 796
-45 1112 -202 1800 -411 1800 -30 0 -47 -7 -66 -25z" fill="#fff"/>
<path d="M1412 5470 c-12 -11 -19 -26 -16 -34 3 -8 -2 -54 -10 -102 -60 -339
-104 -1190 -76 -1472 11 -117 50 -204 141 -315 191 -234 185 -214 182 -572 -5
-540 -33 -922 -129 -1730 -33 -274 -37 -339 -38 -555 0 -214 2 -261 22 -370
34 -185 71 -253 164 -301 54 -28 149 -26 213 5 120 56 160 156 186 460 16 188
3 406 -56 956 -65 603 -96 1082 -98 1530 l-2 305 27 55 c15 30 55 87 89 125
123 140 181 256 201 398 30 229 -18 1193 -78 1535 -16 90 -21 105 -33 97 -15
-9 -21 -84 -36 -447 -22 -560 -38 -747 -66 -800 -11 -20 -12 -20 -21 -3 -29
50 -40 215 -59 840 -8 299 -16 395 -33 412 -23 23 -34 -82 -46 -429 -18 -540
-36 -751 -67 -812 -14 -27 -16 -28 -28 -12 -33 45 -53 351 -55 831 -2 275 -9
398 -27 416 -26 26 -37 -78 -68 -686 -21 -394 -47 -598 -74 -569 -34 35 -49
235 -60 807 -5 246 -13 443 -18 448 -6 6 -17 1 -31 -11z" fill="#fff" />
</g>
</svg>
